<svg width="44" height="53" viewBox="0 0 44 53" fill="none" xmlns="http://www.w3.org/2000/svg">
<g filter="url(#filter0_d_23_16)">
<path d="M22.4692 8.27783C19.4298 8.28037 16.5148 9.48559 14.361 11.6302C12.2072 13.7749 10.9896 16.6847 10.9741 19.7242C10.9741 24.2812 13.5308 28.0967 15.4043 30.8777L15.7459 31.3852C17.6099 34.0868 19.6097 36.6924 21.7374 39.1917L22.479 40.0602L23.2206 39.1917C25.348 36.6921 27.3478 34.0866 29.2121 31.3852L29.5537 30.868C31.4175 28.0869 33.9741 24.2812 33.9741 19.7242C33.9586 16.683 32.7397 13.7717 30.5838 11.6268C28.4279 9.48187 25.5104 8.27779 22.4692 8.27783V8.27783ZM22.4692 24.8667C21.2032 24.8667 19.9655 24.4913 18.9128 23.7879C17.8601 23.0845 17.0397 22.0847 16.5552 20.9151C16.0707 19.7454 15.9439 18.4583 16.1909 17.2165C16.4379 15.9748 17.0476 14.8342 17.9428 13.9389C18.838 13.0437 19.9787 12.434 21.2204 12.187C22.4621 11.94 23.7492 12.0668 24.9189 12.5513C26.0886 13.0358 27.0884 13.8563 27.7918 14.909C28.4952 15.9617 28.8706 17.1993 28.8706 18.4654C28.8706 20.1631 28.1962 21.7913 26.9957 22.9918C25.7952 24.1923 24.167 24.8667 22.4692 24.8667V24.8667Z" fill="#198754"/>
<path d="M22.4694 22.105C24.4796 22.105 26.1092 20.4754 26.1092 18.4652C26.1092 16.455 24.4796 14.8254 22.4694 14.8254C20.4592 14.8254 18.8296 16.455 18.8296 18.4652C18.8296 20.4754 20.4592 22.105 22.4694 22.105Z" fill="#212529"/>
</g>
<defs>
<filter id="filter0_d_23_16" x="0.974121" y="0.277832" width="43" height="51.7823" filterUnits="userSpaceOnUse" color-interpolation-filters="sRGB">
<feFlood flood-opacity="0" result="BackgroundImageFix"/>
<feColorMatrix in="SourceAlpha" type="matrix" values="0 0 0 0 0 0 0 0 0 0 0 0 0 0 0 0 0 0 127 0" result="hardAlpha"/>
<feOffset dy="2"/>
<feGaussianBlur stdDeviation="5"/>
<feComposite in2="hardAlpha" operator="out"/>
<feColorMatrix type="matrix" values="0 0 0 0 0.482861 0 0 0 0 0.983606 0 0 0 0 0.751442 0 0 0 0.8 0"/>
<feBlend mode="normal" in2="BackgroundImageFix" result="effect1_dropShadow_23_16"/>
<feBlend mode="normal" in="SourceGraphic" in2="effect1_dropShadow_23_16" result="shape"/>
</filter>
</defs>
</svg>
